<svg xmlns="http://www.w3.org/2000/svg" viewBox="0 0 24 24" fill="#2c3e50">
  <!-- 膀胱形状图标 -->
  <path d="M12 2C9.5 2 7.5 4 7.5 6.5C7.5 7.5 7.8 8.4 8.3 9.2C6.5 9.5 5 11 5 13V14H4C2.9 14 2 14.9 2 16V20C2 21.1 2.9 22 4 22H20C21.1 22 22 21.1 22 20V16C22 14.9 21.1 14 20 14H19V13C19 11 17.5 9.5 15.7 9.2C16.2 8.4 16.5 7.5 16.5 6.5C16.5 4 14.5 2 12 2ZM12 4C13.1 4 14 4.9 14 6.5C14 7.5 13.5 8.3 12.7 8.8L12 9.2L11.3 8.8C10.5 8.3 10 7.5 10 6.5C10 4.9 10.9 4 12 4ZM6.5 16H17.5V18H6.5V16ZM5 19H19V20H5V19Z"/>
</svg>
